<svg xmlns="http://www.w3.org/2000/svg" version="1.1" width="31.208000000000002in" height="15.972000000000001in" viewBox = " 0 0 2808.7200000000003 1437.48" >
<!-- Front--> 
<g transform="translate(22.5, 22.5) " > 
<polygon style="stroke:#000000; fill:none; stroke-width:0.9" points="0, 0 88.56000000000004, 0 88.56000000000004, 10.62 177.1200000000001, 10.62 177.1200000000001, 0 240.1200000000001, 0 240.1200000000001, 10.62 303.12000000000006, 10.62 303.12000000000006, 0 366.12000000000006, 0 366.12000000000006, 10.62 429.12000000000006, 10.62 429.12000000000006, 0 492.12, 0 492.12, 10.62 555.12, 10.62 555.12, 0 618.12, 0 618.12, 10.62 681.12, 10.62 681.12, 0 744.12, 0 744.12, 10.62 832.6800000000001, 10.62 832.6800000000001, 0 921.24, 0 921.24, 94.24799999999999 910.62, 94.24799999999999 910.62, 188.49599999999998 921.24, 188.49599999999998 921.24, 282.74399999999997 910.62, 282.74399999999997 910.62, 376.99199999999996 921.24, 376.99199999999996 921.24, 471.23999999999995 832.6800000000001, 471.23999999999995 832.6800000000001, 460.61999999999995 744.12, 460.61999999999995 744.12, 471.23999999999995 681.12, 471.23999999999995 681.12, 460.61999999999995 618.12, 460.61999999999995 618.12, 471.23999999999995 555.12, 471.23999999999995 555.12, 460.61999999999995 492.12, 460.61999999999995 492.12, 471.23999999999995 429.12000000000006, 471.23999999999995 429.12000000000006, 460.61999999999995 366.12000000000006, 460.61999999999995 366.12000000000006, 471.23999999999995 303.12000000000006, 471.23999999999995 303.12000000000006, 460.61999999999995 240.1200000000001, 460.61999999999995 240.1200000000001, 471.23999999999995 177.1200000000001, 471.23999999999995 177.1200000000001, 460.61999999999995 88.56000000000004, 460.61999999999995 88.56000000000004, 471.23999999999995 0, 471.23999999999995 0, 376.99199999999996 10.62, 376.99199999999996 10.62, 282.74399999999997 0, 282.74399999999997 0, 188.49599999999998 10.62, 188.49599999999998 10.62, 94.24799999999999 0, 94.24799999999999 "/> 
</g>
<!-- Back--> 
<g transform="translate(943.74, 22.5) " > 
<polygon style="stroke:#000000; fill:none; stroke-width:0.9" points="0, 0 88.56000000000004, 0 88.56000000000004, 10.62 177.1200000000001, 10.62 177.1200000000001, 0 240.1200000000001, 0 240.1200000000001, 10.62 303.12000000000006, 10.62 303.12000000000006, 0 366.12000000000006, 0 366.12000000000006, 10.62 429.12000000000006, 10.62 429.12000000000006, 0 492.12, 0 492.12, 10.62 555.12, 10.62 555.12, 0 618.12, 0 618.12, 10.62 681.12, 10.62 681.12, 0 744.12, 0 744.12, 10.62 832.6800000000001, 10.62 832.6800000000001, 0 921.24, 0 921.24, 94.24799999999999 910.62, 94.24799999999999 910.62, 188.49599999999998 921.24, 188.49599999999998 921.24, 282.74399999999997 910.62, 282.74399999999997 910.62, 376.99199999999996 921.24, 376.99199999999996 921.24, 471.23999999999995 832.6800000000001, 471.23999999999995 832.6800000000001, 460.61999999999995 744.12, 460.61999999999995 744.12, 471.23999999999995 681.12, 471.23999999999995 681.12, 460.61999999999995 618.12, 460.61999999999995 618.12, 471.23999999999995 555.12, 471.23999999999995 555.12, 460.61999999999995 492.12, 460.61999999999995 492.12, 471.23999999999995 429.12000000000006, 471.23999999999995 429.12000000000006, 460.61999999999995 366.12000000000006, 460.61999999999995 366.12000000000006, 471.23999999999995 303.12000000000006, 471.23999999999995 303.12000000000006, 460.61999999999995 240.1200000000001, 460.61999999999995 240.1200000000001, 471.23999999999995 177.1200000000001, 471.23999999999995 177.1200000000001, 460.61999999999995 88.56000000000004, 460.61999999999995 88.56000000000004, 471.23999999999995 0, 471.23999999999995 0, 376.99199999999996 10.62, 376.99199999999996 10.62, 282.74399999999997 0, 282.74399999999997 0, 188.49599999999998 10.62, 188.49599999999998 10.62, 94.24799999999999 0, 94.24799999999999 "/> 
</g>
<!-- Left--> 
<g transform="translate(1864.98, 22.5) " > 
<polygon style="stroke:#000000; fill:none; stroke-width:0.9" points="10.62, 0 88.56000000000004, 0 88.56000000000004, 10.62 177.1200000000001, 10.62 177.1200000000001, 0 240.1200000000001, 0 240.1200000000001, 10.62 303.12000000000006, 10.62 303.12000000000006, 0 366.12000000000006, 0 366.12000000000006, 10.62 429.12000000000006, 10.62 429.12000000000006, 0 492.12, 0 492.12, 10.62 555.12, 10.62 555.12, 0 618.12, 0 618.12, 10.62 681.12, 10.62 681.12, 0 744.12, 0 744.12, 10.62 832.6800000000001, 10.62 832.6800000000001, 0 910.62, 0 910.62, 94.24799999999999 921.24, 94.24799999999999 921.24, 188.49599999999998 910.62, 188.49599999999998 910.62, 282.74399999999997 921.24, 282.74399999999997 921.24, 376.99199999999996 910.62, 376.99199999999996 910.62, 471.23999999999995 832.6800000000001, 471.23999999999995 832.6800000000001, 460.61999999999995 744.12, 460.61999999999995 744.12, 471.23999999999995 681.12, 471.23999999999995 681.12, 460.61999999999995 618.12, 460.61999999999995 618.12, 471.23999999999995 555.12, 471.23999999999995 555.12, 460.61999999999995 492.12, 460.61999999999995 492.12, 471.23999999999995 429.12000000000006, 471.23999999999995 429.12000000000006, 460.61999999999995 366.12000000000006, 460.61999999999995 366.12000000000006, 471.23999999999995 303.12000000000006, 471.23999999999995 303.12000000000006, 460.61999999999995 240.1200000000001, 460.61999999999995 240.1200000000001, 471.23999999999995 177.1200000000001, 471.23999999999995 177.1200000000001, 460.61999999999995 88.56000000000004, 460.61999999999995 88.56000000000004, 471.23999999999995 10.62, 471.23999999999995 10.62, 376.99199999999996 0, 376.99199999999996 0, 282.74399999999997 10.62, 282.74399999999997 10.62, 188.49599999999998 0, 188.49599999999998 0, 94.24799999999999 10.62, 94.24799999999999 "/> 
</g>
<!-- Right--> 
<g transform="translate(1864.98, 493.73999999999995) " > 
<polygon style="stroke:#000000; fill:none; stroke-width:0.9" points="10.62, 0 88.56000000000004, 0 88.56000000000004, 10.62 177.1200000000001, 10.62 177.1200000000001, 0 240.1200000000001, 0 240.1200000000001, 10.62 303.12000000000006, 10.62 303.12000000000006, 0 366.12000000000006, 0 366.12000000000006, 10.62 429.12000000000006, 10.62 429.12000000000006, 0 492.12, 0 492.12, 10.62 555.12, 10.62 555.12, 0 618.12, 0 618.12, 10.62 681.12, 10.62 681.12, 0 744.12, 0 744.12, 10.62 832.6800000000001, 10.62 832.6800000000001, 0 910.62, 0 910.62, 94.24799999999999 921.24, 94.24799999999999 921.24, 188.49599999999998 910.62, 188.49599999999998 910.62, 282.74399999999997 921.24, 282.74399999999997 921.24, 376.99199999999996 910.62, 376.99199999999996 910.62, 471.23999999999995 832.6800000000001, 471.23999999999995 832.6800000000001, 460.61999999999995 744.12, 460.61999999999995 744.12, 471.23999999999995 681.12, 471.23999999999995 681.12, 460.61999999999995 618.12, 460.61999999999995 618.12, 471.23999999999995 555.12, 471.23999999999995 555.12, 460.61999999999995 492.12, 460.61999999999995 492.12, 471.23999999999995 429.12000000000006, 471.23999999999995 429.12000000000006, 460.61999999999995 366.12000000000006, 460.61999999999995 366.12000000000006, 471.23999999999995 303.12000000000006, 471.23999999999995 303.12000000000006, 460.61999999999995 240.1200000000001, 460.61999999999995 240.1200000000001, 471.23999999999995 177.1200000000001, 471.23999999999995 177.1200000000001, 460.61999999999995 88.56000000000004, 460.61999999999995 88.56000000000004, 471.23999999999995 10.62, 471.23999999999995 10.62, 376.99199999999996 0, 376.99199999999996 0, 282.74399999999997 10.62, 282.74399999999997 10.62, 188.49599999999998 0, 188.49599999999998 0, 94.24799999999999 10.62, 94.24799999999999 "/> 
</g>
<!-- Top--> 
<g transform="translate(22.5, 493.73999999999995) " > 
<polygon style="stroke:#000000; fill:none; stroke-width:0.9" points="10.62, 10.62 88.56000000000004, 10.62 88.56000000000004, 0 177.1200000000001, 0 177.1200000000001, 10.62 240.1200000000001, 10.62 240.1200000000001, 0 303.12000000000006, 0 303.12000000000006, 10.62 366.12000000000006, 10.62 366.12000000000006, 0 429.12000000000006, 0 429.12000000000006, 10.62 492.12, 10.62 492.12, 0 555.12, 0 555.12, 10.62 618.12, 10.62 618.12, 0 681.12, 0 681.12, 10.62 744.12, 10.62 744.12, 0 832.6800000000001, 0 832.6800000000001, 10.62 910.62, 10.62 910.62, 88.56000000000004 921.24, 88.56000000000004 921.24, 177.1200000000001 910.62, 177.1200000000001 910.62, 240.1200000000001 921.24, 240.1200000000001 921.24, 303.12000000000006 910.62, 303.12000000000006 910.62, 366.12000000000006 921.24, 366.12000000000006 921.24, 429.12000000000006 910.62, 429.12000000000006 910.62, 492.12 921.24, 492.12 921.24, 555.12 910.62, 555.12 910.62, 618.12 921.24, 618.12 921.24, 681.12 910.62, 681.12 910.62, 744.12 921.24, 744.12 921.24, 832.6800000000001 910.62, 832.6800000000001 910.62, 910.62 832.6800000000001, 910.62 832.6800000000001, 921.24 744.12, 921.24 744.12, 910.62 681.12, 910.62 681.12, 921.24 618.12, 921.24 618.12, 910.62 555.12, 910.62 555.12, 921.24 492.12, 921.24 492.12, 910.62 429.12000000000006, 910.62 429.12000000000006, 921.24 366.12000000000006, 921.24 366.12000000000006, 910.62 303.12000000000006, 910.62 303.12000000000006, 921.24 240.1200000000001, 921.24 240.1200000000001, 910.62 177.1200000000001, 910.62 177.1200000000001, 921.24 88.56000000000004, 921.24 88.56000000000004, 910.62 10.62, 910.62 10.62, 832.6800000000001 0, 832.6800000000001 0, 744.12 10.62, 744.12 10.62, 681.12 0, 681.12 0, 618.12 10.62, 618.12 10.62, 555.12 0, 555.12 0, 492.12 10.62, 492.12 10.62, 429.12000000000006 0, 429.12000000000006 0, 366.12000000000006 10.62, 366.12000000000006 10.62, 303.12000000000006 0, 303.12000000000006 0, 240.1200000000001 10.62, 240.1200000000001 10.62, 177.1200000000001 0, 177.1200000000001 0, 88.56000000000004 10.62, 88.56000000000004 "/> 
</g>
<!-- Bottom--> 
<g transform="translate(943.74, 493.73999999999995) " > 
<polygon style="stroke:#000000; fill:none; stroke-width:0.9" points="10.62, 10.62 88.56000000000004, 10.62 88.56000000000004, 0 177.1200000000001, 0 177.1200000000001, 10.62 240.1200000000001, 10.62 240.1200000000001, 0 303.12000000000006, 0 303.12000000000006, 10.62 366.12000000000006, 10.62 366.12000000000006, 0 429.12000000000006, 0 429.12000000000006, 10.62 492.12, 10.62 492.12, 0 555.12, 0 555.12, 10.62 618.12, 10.62 618.12, 0 681.12, 0 681.12, 10.62 744.12, 10.62 744.12, 0 832.6800000000001, 0 832.6800000000001, 10.62 910.62, 10.62 910.62, 88.56000000000004 921.24, 88.56000000000004 921.24, 177.1200000000001 910.62, 177.1200000000001 910.62, 240.1200000000001 921.24, 240.1200000000001 921.24, 303.12000000000006 910.62, 303.12000000000006 910.62, 366.12000000000006 921.24, 366.12000000000006 921.24, 429.12000000000006 910.62, 429.12000000000006 910.62, 492.12 921.24, 492.12 921.24, 555.12 910.62, 555.12 910.62, 618.12 921.24, 618.12 921.24, 681.12 910.62, 681.12 910.62, 744.12 921.24, 744.12 921.24, 832.6800000000001 910.62, 832.6800000000001 910.62, 910.62 832.6800000000001, 910.62 832.6800000000001, 921.24 744.12, 921.24 744.12, 910.62 681.12, 910.62 681.12, 921.24 618.12, 921.24 618.12, 910.62 555.12, 910.62 555.12, 921.24 492.12, 921.24 492.12, 910.62 429.12000000000006, 910.62 429.12000000000006, 921.24 366.12000000000006, 921.24 366.12000000000006, 910.62 303.12000000000006, 910.62 303.12000000000006, 921.24 240.1200000000001, 921.24 240.1200000000001, 910.62 177.1200000000001, 910.62 177.1200000000001, 921.24 88.56000000000004, 921.24 88.56000000000004, 910.62 10.62, 910.62 10.62, 832.6800000000001 0, 832.6800000000001 0, 744.12 10.62, 744.12 10.62, 681.12 0, 681.12 0, 618.12 10.62, 618.12 10.62, 555.12 0, 555.12 0, 492.12 10.62, 492.12 10.62, 429.12000000000006 0, 429.12000000000006 0, 366.12000000000006 10.62, 366.12000000000006 10.62, 303.12000000000006 0, 303.12000000000006 0, 240.1200000000001 10.62, 240.1200000000001 10.62, 177.1200000000001 0, 177.1200000000001 0, 88.56000000000004 10.62, 88.56000000000004 "/> 
</g></svg>